<mxfile host="app.diagrams.net" agent="Mozilla/5.0 (Windows NT 10.0; Win64; x64) AppleWebKit/537.36 (KHTML, like Gecko) Chrome/130.0.0.0 Safari/537.36 Edg/130.0.0.0" version="24.9.3">
  <diagram name="Page-1" id="qDgsVVboya03UAVbPF4Q">
    <mxGraphModel dx="579" dy="341" grid="1" gridSize="10" guides="1" tooltips="1" connect="1" arrows="1" fold="1" page="1" pageScale="1" pageWidth="827" pageHeight="1169" math="0" shadow="0">
      <root>
        <mxCell id="0" />
        <mxCell id="1" parent="0" />
        <mxCell id="lWV3G9hs6SeaoROXnNra-12" value="" style="edgeStyle=orthogonalEdgeStyle;rounded=0;orthogonalLoop=1;jettySize=auto;html=1;" parent="1" source="lWV3G9hs6SeaoROXnNra-4" target="lWV3G9hs6SeaoROXnNra-11" edge="1">
          <mxGeometry relative="1" as="geometry" />
        </mxCell>
        <mxCell id="lWV3G9hs6SeaoROXnNra-4" value="Mulai" style="ellipse;whiteSpace=wrap;html=1;" parent="1" vertex="1">
          <mxGeometry x="354" y="40" width="120" height="40" as="geometry" />
        </mxCell>
        <mxCell id="kHgfLG4oplANK3jGXSsF-2" style="edgeStyle=orthogonalEdgeStyle;rounded=0;orthogonalLoop=1;jettySize=auto;html=1;exitX=0.5;exitY=1;exitDx=0;exitDy=0;entryX=0.5;entryY=0;entryDx=0;entryDy=0;" edge="1" parent="1" source="lWV3G9hs6SeaoROXnNra-11" target="kHgfLG4oplANK3jGXSsF-1">
          <mxGeometry relative="1" as="geometry" />
        </mxCell>
        <mxCell id="lWV3G9hs6SeaoROXnNra-11" value="Halaman awal" style="whiteSpace=wrap;html=1;" parent="1" vertex="1">
          <mxGeometry x="354" y="110" width="120" height="30" as="geometry" />
        </mxCell>
        <mxCell id="kHgfLG4oplANK3jGXSsF-6" value="" style="edgeStyle=orthogonalEdgeStyle;rounded=0;orthogonalLoop=1;jettySize=auto;html=1;" edge="1" parent="1" source="kHgfLG4oplANK3jGXSsF-1">
          <mxGeometry relative="1" as="geometry">
            <mxPoint x="414" y="320" as="targetPoint" />
          </mxGeometry>
        </mxCell>
        <mxCell id="kHgfLG4oplANK3jGXSsF-1" value="Pilih layanan&lt;div&gt;rental&lt;/div&gt;" style="shape=parallelogram;perimeter=parallelogramPerimeter;whiteSpace=wrap;html=1;fixedSize=1;" vertex="1" parent="1">
          <mxGeometry x="354" y="170" width="120" height="60" as="geometry" />
        </mxCell>
        <mxCell id="kHgfLG4oplANK3jGXSsF-3" value="Verifikasi&lt;div&gt;Pembayaran&lt;/div&gt;" style="shape=parallelogram;perimeter=parallelogramPerimeter;whiteSpace=wrap;html=1;fixedSize=1;" vertex="1" parent="1">
          <mxGeometry x="354" y="680" width="120" height="60" as="geometry" />
        </mxCell>
        <mxCell id="kHgfLG4oplANK3jGXSsF-9" value="" style="edgeStyle=orthogonalEdgeStyle;rounded=0;orthogonalLoop=1;jettySize=auto;html=1;" edge="1" parent="1" target="kHgfLG4oplANK3jGXSsF-8">
          <mxGeometry relative="1" as="geometry">
            <mxPoint x="414" y="380" as="sourcePoint" />
          </mxGeometry>
        </mxCell>
        <mxCell id="kHgfLG4oplANK3jGXSsF-10" value="iya" style="edgeStyle=orthogonalEdgeStyle;rounded=0;orthogonalLoop=1;jettySize=auto;html=1;" edge="1" parent="1" source="kHgfLG4oplANK3jGXSsF-8" target="kHgfLG4oplANK3jGXSsF-3">
          <mxGeometry relative="1" as="geometry" />
        </mxCell>
        <mxCell id="kHgfLG4oplANK3jGXSsF-12" value="tidak" style="edgeStyle=orthogonalEdgeStyle;rounded=0;orthogonalLoop=1;jettySize=auto;html=1;" edge="1" parent="1" source="kHgfLG4oplANK3jGXSsF-8">
          <mxGeometry relative="1" as="geometry">
            <mxPoint x="320" y="450" as="targetPoint" />
          </mxGeometry>
        </mxCell>
        <mxCell id="kHgfLG4oplANK3jGXSsF-8" value="&lt;font style=&quot;font-size: 10px;&quot;&gt;SUDAH&amp;nbsp;&lt;/font&gt;&lt;div&gt;&lt;font style=&quot;font-size: 10px;&quot;&gt;LOGIN ?&lt;/font&gt;&lt;/div&gt;" style="rhombus;whiteSpace=wrap;html=1;" vertex="1" parent="1">
          <mxGeometry x="374" y="410" width="80" height="80" as="geometry" />
        </mxCell>
        <mxCell id="kHgfLG4oplANK3jGXSsF-17" value="" style="edgeStyle=orthogonalEdgeStyle;rounded=0;orthogonalLoop=1;jettySize=auto;html=1;" edge="1" parent="1" target="kHgfLG4oplANK3jGXSsF-14">
          <mxGeometry relative="1" as="geometry">
            <mxPoint x="270" y="480" as="sourcePoint" />
          </mxGeometry>
        </mxCell>
        <mxCell id="kHgfLG4oplANK3jGXSsF-13" value="HALAMAN&amp;nbsp;&lt;div&gt;LOGIN&lt;/div&gt;" style="rounded=0;whiteSpace=wrap;html=1;" vertex="1" parent="1">
          <mxGeometry x="200" y="420" width="120" height="60" as="geometry" />
        </mxCell>
        <mxCell id="kHgfLG4oplANK3jGXSsF-19" value="" style="edgeStyle=orthogonalEdgeStyle;rounded=0;orthogonalLoop=1;jettySize=auto;html=1;" edge="1" parent="1" source="kHgfLG4oplANK3jGXSsF-14" target="kHgfLG4oplANK3jGXSsF-15">
          <mxGeometry relative="1" as="geometry" />
        </mxCell>
        <mxCell id="kHgfLG4oplANK3jGXSsF-25" value="tidak" style="edgeLabel;html=1;align=center;verticalAlign=middle;resizable=0;points=[];" vertex="1" connectable="0" parent="kHgfLG4oplANK3jGXSsF-19">
          <mxGeometry x="-0.0444" relative="1" as="geometry">
            <mxPoint as="offset" />
          </mxGeometry>
        </mxCell>
        <mxCell id="kHgfLG4oplANK3jGXSsF-23" value="" style="edgeStyle=orthogonalEdgeStyle;rounded=0;orthogonalLoop=1;jettySize=auto;html=1;" edge="1" parent="1" source="kHgfLG4oplANK3jGXSsF-14" target="kHgfLG4oplANK3jGXSsF-20">
          <mxGeometry relative="1" as="geometry" />
        </mxCell>
        <mxCell id="kHgfLG4oplANK3jGXSsF-26" value="iya" style="edgeLabel;html=1;align=center;verticalAlign=middle;resizable=0;points=[];" vertex="1" connectable="0" parent="kHgfLG4oplANK3jGXSsF-23">
          <mxGeometry x="-0.6489" y="-1" relative="1" as="geometry">
            <mxPoint as="offset" />
          </mxGeometry>
        </mxCell>
        <mxCell id="kHgfLG4oplANK3jGXSsF-14" value="&lt;span style=&quot;font-size: 10px;&quot;&gt;Sudah&amp;nbsp;&lt;/span&gt;&lt;div&gt;&lt;span style=&quot;font-size: 10px;&quot;&gt;punya&amp;nbsp;&lt;/span&gt;&lt;/div&gt;&lt;div&gt;&lt;span style=&quot;font-size: 10px;&quot;&gt;akun ?&lt;/span&gt;&lt;/div&gt;" style="rhombus;whiteSpace=wrap;html=1;" vertex="1" parent="1">
          <mxGeometry x="230" y="520" width="80" height="80" as="geometry" />
        </mxCell>
        <mxCell id="kHgfLG4oplANK3jGXSsF-21" style="edgeStyle=orthogonalEdgeStyle;rounded=0;orthogonalLoop=1;jettySize=auto;html=1;" edge="1" parent="1" source="kHgfLG4oplANK3jGXSsF-15" target="kHgfLG4oplANK3jGXSsF-13">
          <mxGeometry relative="1" as="geometry">
            <Array as="points">
              <mxPoint x="115" y="450" />
            </Array>
          </mxGeometry>
        </mxCell>
        <mxCell id="kHgfLG4oplANK3jGXSsF-15" value="&lt;font style=&quot;font-size: 10px;&quot;&gt;Register&lt;/font&gt;" style="shape=parallelogram;perimeter=parallelogramPerimeter;whiteSpace=wrap;html=1;fixedSize=1;" vertex="1" parent="1">
          <mxGeometry x="60" y="540" width="110" height="40" as="geometry" />
        </mxCell>
        <mxCell id="kHgfLG4oplANK3jGXSsF-16" value="Pembayaran" style="shape=parallelogram;perimeter=parallelogramPerimeter;whiteSpace=wrap;html=1;fixedSize=1;" vertex="1" parent="1">
          <mxGeometry x="354" y="260" width="120" height="60" as="geometry" />
        </mxCell>
        <mxCell id="kHgfLG4oplANK3jGXSsF-24" style="edgeStyle=orthogonalEdgeStyle;rounded=0;orthogonalLoop=1;jettySize=auto;html=1;" edge="1" parent="1" source="kHgfLG4oplANK3jGXSsF-20" target="kHgfLG4oplANK3jGXSsF-3">
          <mxGeometry relative="1" as="geometry">
            <Array as="points">
              <mxPoint x="270" y="710" />
            </Array>
          </mxGeometry>
        </mxCell>
        <mxCell id="kHgfLG4oplANK3jGXSsF-20" value="Login" style="shape=parallelogram;perimeter=parallelogramPerimeter;whiteSpace=wrap;html=1;fixedSize=1;" vertex="1" parent="1">
          <mxGeometry x="210" y="630" width="120" height="60" as="geometry" />
        </mxCell>
      </root>
    </mxGraphModel>
  </diagram>
</mxfile>
